<svg width="69" height="68" viewBox="0 0 69 68" fill="none" xmlns="http://www.w3.org/2000/svg">
<path d="M30.4916 2.13456L30.8104 2.18875L57.9041 8.56376C58.3743 8.67376 58.8002 8.92358 59.1256 9.28033C59.4511 9.63708 59.6609 10.084 59.7274 10.5623L59.7497 10.8906V57.1094C59.7499 57.5924 59.6038 58.064 59.3307 58.4623C59.0576 58.8606 58.6702 59.1668 58.2197 59.3407L57.9073 59.4363L30.8135 65.8113C30.4894 65.8877 30.1528 65.8955 29.8255 65.8342C29.4981 65.7729 29.1872 65.6439 28.9126 65.4554C28.638 65.267 28.4058 65.0232 28.2309 64.7398C28.056 64.4563 27.9423 64.1395 27.897 63.8095L27.8747 63.4844V4.51563C27.8743 3.89623 28.1143 3.30085 28.5442 2.85491C28.974 2.40898 29.5602 2.1473 30.1792 2.125L30.4916 2.13456ZM32.6559 7.53419V60.4659L54.9684 55.216V12.784L32.6559 7.53419ZM24.6872 8.50001V13.2813H13.5309V54.7188H24.6872V59.5H11.1403C10.5626 59.5 10.0044 59.2908 9.56906 58.9111C9.13368 58.5314 8.85053 58.0069 8.77196 57.4345L8.74965 57.1094V10.8906C8.74967 10.3129 8.95889 9.75479 9.3386 9.31942C9.7183 8.88404 10.2428 8.60088 10.8152 8.52232L11.1403 8.50001H24.6872ZM40.6247 30.8125C41.4701 30.8125 42.2808 31.1483 42.8786 31.7461C43.4764 32.3439 43.8122 33.1546 43.8122 34C43.8122 34.8454 43.4764 35.6562 42.8786 36.2539C42.2808 36.8517 41.4701 37.1875 40.6247 37.1875C39.7793 37.1875 38.9685 36.8517 38.3708 36.2539C37.773 35.6562 37.4372 34.8454 37.4372 34C37.4372 33.1546 37.773 32.3439 38.3708 31.7461C38.9685 31.1483 39.7793 30.8125 40.6247 30.8125Z" fill="white"/>
</svg>
